<svg width="1440" height="101" viewBox="0 0 1440 101" fill="none" xmlns="http://www.w3.org/2000/svg">
<mask id="path-1-inside-1_0_471" fill="white">
<path d="M0 0H1440V101H0V0Z"/>
</mask>
<path d="M0 0H1440V101H0V0Z" fill="black"/>
<path d="M1440 100H0V102H1440V100Z" fill="#C0D6EA" fill-opacity="0.15" mask="url(#path-1-inside-1_0_471)"/>
<g clip-path="url(#clip0_0_471)">
<g clip-path="url(#clip1_0_471)">
<g clip-path="url(#clip2_0_471)">
<g clip-path="url(#clip3_0_471)">
<mask id="mask0_0_471" style="mask-type:luminance" maskUnits="userSpaceOnUse" x="-25" y="35" width="74" height="30">
<path d="M48.336 35.002H-24.7695V64.8952H48.336V35.002Z" fill="white"/>
</mask>
<g mask="url(#mask0_0_471)">
<mask id="mask1_0_471" style="mask-type:luminance" maskUnits="userSpaceOnUse" x="-33" y="27" width="93" height="46">
<path d="M-32.6367 27.0029H59.1466V72.8946H-32.6367V27.0029Z" fill="white"/>
</mask>
<g mask="url(#mask1_0_471)">
<path fill-rule="evenodd" clip-rule="evenodd" d="M28.8584 42.2034C28.6406 41.9522 28.3915 41.7209 28.2107 41.4452C28.0496 41.2014 27.8585 40.9052 27.8654 40.6373C27.8826 39.9618 27.5792 39.4698 27.1988 38.963C26.8945 38.5577 26.6761 38.087 26.4282 37.6418C26.2574 37.3337 26.2556 36.791 25.9486 36.7054C25.6674 36.6269 25.3774 36.9424 25.0648 37.0751C24.5784 36.8546 24.0369 36.4293 23.4656 36.3837C21.6864 36.2416 19.8957 36.236 18.1082 36.1915C17.1148 36.1657 15.9407 36.5345 14.9642 36.4012C12.9077 36.117 11.04 35.4069 8.98384 35.1176C8.05154 34.9869 7.07228 34.9528 6.14595 35.0897C5.25991 35.2222 4.40936 35.6158 3.55462 35.9291C1.89905 36.5356 0.499475 37.5578 -0.563804 38.9285C-1.25911 39.8264 -1.73835 40.9091 -2.21471 41.9541C-2.67578 42.9638 -3.07136 44.0145 -3.38161 45.0813C-3.68863 46.1374 -3.2652 48.4395 -3.63174 49.47C-4.34796 51.4794 -5.84351 51.9021 -5.68313 53.9573C-5.64679 54.4196 -5.46932 55.2198 -4.81871 55.4195C-3.28361 55.8905 -2.27746 56.4048 -1.46849 56.1423C-1.22637 56.0638 -1.16757 55.8446 -1.29508 55.6551C-1.4906 55.3644 -1.90853 54.8426 -2.29909 54.5327C-2.45684 54.4075 -2.47285 54.1729 -2.32825 54.0328C-1.16279 52.9041 0.742319 52.1507 1.75421 50.968C2.71961 52.0828 2.97703 52.9561 3.27318 54.6852C3.39639 55.4046 3.70234 56.4234 4.60523 56.5777C4.93508 56.6339 5.60577 56.7541 6.15026 56.7835C7.23935 56.8425 9.23994 57.0337 9.00296 56.2662C8.85249 55.78 8.61383 55.6662 8.22507 55.4411C7.52594 55.035 6.90819 53.7186 6.89863 52.9334C6.8899 52.208 6.94583 51.4771 7.03965 50.7562C7.05244 50.6591 7.16705 50.2379 7.16705 50.2379C7.16705 50.2379 8.9983 50.2127 10.0126 50.1428C11.0269 50.0728 12.0624 50.0245 12.6529 49.8838C12.8914 50.6989 13.0516 51.5021 13.2043 52.3744C13.4543 53.7961 13.3461 54.734 14.073 55.9268C14.1621 56.0731 14.5569 56.4411 14.7725 56.5186C15.5864 56.8116 17.012 56.6542 18.2304 56.6366C18.588 56.631 19.4956 56.4304 19.2602 56.0185C18.9042 55.3955 18.2835 55.2857 17.7429 55.1357C17.3181 55.0178 16.8718 54.6307 16.8766 54.0467C16.8868 52.8648 17.0757 52.0688 17.4064 50.7538C17.4347 50.642 17.4811 50.5349 17.5361 50.4322C17.5058 50.4001 17.5957 50.361 17.9656 50.2652C18.4026 50.991 18.4926 51.7477 18.9169 52.4275C19.6416 53.3246 21.4941 54.4052 22.2412 55.3678C22.5311 55.7406 23.389 56.5027 23.7897 56.6442C24.6087 56.936 26.146 56.8517 27.0561 56.7691C27.6686 56.7136 27.711 56.2589 27.3742 56.0729C27.1575 55.953 26.8177 55.7653 26.6385 55.6163C26.2748 55.3154 25.8673 54.9784 25.6823 54.5667C24.929 52.8873 22.8418 51.2189 23.0331 49.3967C23.1656 48.1275 23.1526 46.8419 23.2437 45.5665C23.2568 45.375 23.4488 45.0953 23.623 45.0327C24.991 44.5336 26.4134 44.2798 27.8678 44.3026C28.5956 44.3147 28.8385 43.807 29.1384 43.3401C29.432 42.8836 29.1461 42.5346 28.8584 42.2034ZM26.477 44.0283C25.8806 43.6736 26.4222 42.484 26.7135 41.7585C26.7766 41.601 26.9653 41.5343 27.1111 41.6209C27.8614 42.0674 27.5281 43.0719 28.005 43.5662C28.0856 43.6497 28.0442 43.7901 27.9328 43.8228C27.4309 43.9688 26.7217 44.1738 26.477 44.0283Z" fill="#FFFCF7"/>
<path d="M-17.01 62.5801C-17.0191 62.6533 -17.002 62.6967 -16.9584 62.7105C-16.9149 62.7243 -16.8702 62.7334 -16.8245 62.7379H-16.117C-16.0711 62.7334 -16.0278 62.7243 -15.9865 62.7105C-15.9452 62.6967 -15.9293 62.6556 -15.9384 62.5868L-16.4741 60.9247L-17.01 62.5801ZM-17.5661 64.5511C-17.5865 64.6301 -17.6371 64.6979 -17.707 64.74C-17.7396 64.7611 -17.7765 64.7749 -17.8151 64.7802C-17.8536 64.7856 -17.8929 64.7824 -17.93 64.7709L-18.1294 64.709C-18.1673 64.6983 -18.2027 64.68 -18.2333 64.6551C-18.264 64.6304 -18.2893 64.5997 -18.3079 64.5649C-18.328 64.5311 -18.3408 64.4935 -18.3456 64.4545C-18.3503 64.4155 -18.3469 64.3758 -18.3354 64.3383L-17.0441 60.0662C-17.0213 59.9838 -16.9756 59.9151 -16.907 59.8601C-16.838 59.8052 -16.7649 59.7778 -16.6871 59.7778H-16.2544C-16.1766 59.7778 -16.1033 59.8052 -16.0345 59.8601C-15.966 59.9151 -15.9202 59.9838 -15.8971 60.0662L-14.6059 64.3383C-14.5945 64.3758 -14.5911 64.4155 -14.5958 64.4545C-14.6005 64.4934 -14.6133 64.5311 -14.6333 64.5649C-14.6519 64.5997 -14.6773 64.6304 -14.708 64.6551C-14.7387 64.6799 -14.774 64.6983 -14.812 64.709L-15.0113 64.7709C-15.0485 64.7824 -15.0877 64.7856 -15.1263 64.7802C-15.1648 64.7749 -15.2017 64.7611 -15.2344 64.74C-15.3043 64.698 -15.3549 64.6301 -15.3752 64.5511L-15.5881 63.7956C-15.6155 63.6952 -15.6602 63.624 -15.722 63.5829C-15.7838 63.5415 -15.856 63.521 -15.9384 63.521H-17.003C-17.0808 63.5197 -17.1572 63.541 -17.2229 63.5829C-17.2869 63.624 -17.3304 63.695 -17.3532 63.7956L-17.5661 64.5511ZM-12.1061 64.6816C-12.1611 64.7413 -12.2319 64.7709 -12.3189 64.7709H-12.5387C-12.6166 64.7709 -12.6854 64.7413 -12.7448 64.6816C-12.8044 64.6222 -12.834 64.5535 -12.834 64.4756V60.0938C-12.834 60.0068 -12.8044 59.9312 -12.7448 59.8671C-12.6854 59.803 -12.6166 59.771 -12.5387 59.771H-12.3188C-12.2777 59.771 -12.2376 59.7802 -12.1988 59.7984C-12.16 59.8166 -12.1176 59.8511 -12.0717 59.9013L-9.79143 63.15V60.1006C-9.79143 60.0091 -9.76179 59.9323 -9.70228 59.8705C-9.64276 59.8085 -9.57416 59.7778 -9.49624 59.7778H-9.27634C-9.18946 59.7778 -9.11835 59.8085 -9.06337 59.8705C-9.00864 59.9323 -8.98103 60.0092 -8.98103 60.1006V64.4756C-8.98103 64.5673 -9.00864 64.6405 -9.06337 64.6955C-9.11835 64.7504 -9.18934 64.7778 -9.27634 64.7778H-9.50986C-9.55098 64.7778 -9.59233 64.7676 -9.63356 64.7468C-9.67467 64.7262 -9.71148 64.6911 -9.74327 64.6405L-12.0235 61.3918V64.4756C-12.0235 64.5537 -12.0511 64.6222 -12.1061 64.6816ZM-6.13766 60.6158C-6.21558 60.6158 -6.28071 60.6432 -6.33353 60.6981C-6.35911 60.7244 -6.3793 60.7555 -6.39293 60.7896C-6.40643 60.8237 -6.41301 60.8602 -6.41241 60.8969V63.6658C-6.41241 63.7435 -6.38612 63.8087 -6.33353 63.8612C-6.30796 63.887 -6.27736 63.9073 -6.24366 63.921C-6.20996 63.9345 -6.17387 63.941 -6.13754 63.9401C-6.13754 63.9445 -6.08161 63.9468 -5.96939 63.9468H-5.05932C-4.95403 63.9468 -4.85663 63.9229 -4.76724 63.8751C-4.67808 63.8269 -4.6016 63.7664 -4.5373 63.6933C-4.47324 63.6203 -4.42293 63.5414 -4.38624 63.4569C-4.34967 63.3723 -4.33126 63.2937 -4.33126 63.2203V61.3423C-4.33126 61.2693 -4.34967 61.1904 -4.38624 61.1059C-4.424 61.0197 -4.47503 60.9398 -4.5373 60.8693C-4.60243 60.7954 -4.68035 60.7339 -4.76724 60.6876C-4.85711 60.6396 -4.9575 60.615 -5.05932 60.6158H-6.13766ZM-6.9275 64.771C-7.01916 64.771 -7.09469 64.7413 -7.15409 64.6818C-7.2136 64.6224 -7.24336 64.5511 -7.24336 64.4688V60.0867C-7.24336 60.0045 -7.2136 59.9336 -7.15409 59.874C-7.09469 59.8146 -7.01916 59.7849 -6.9275 59.7849H-5.05932C-4.82592 59.7849 -4.61068 59.8294 -4.41373 59.9187C-4.21689 60.0079 -4.04624 60.1225 -3.90199 60.2621C-3.76097 60.3973 -3.64671 60.5582 -3.56545 60.7359C-3.48537 60.9123 -3.44534 61.0852 -3.44534 61.2545V63.3148C-3.44534 63.4889 -3.48514 63.6619 -3.56545 63.8335C-3.64851 64.0093 -3.76252 64.1686 -3.90199 64.304C-4.05018 64.4487 -4.22347 64.565 -4.41349 64.6473C-4.61068 64.7343 -4.82592 64.7778 -5.05932 64.7778L-6.9275 64.771ZM-0.512568 60.609C-0.590488 60.609 -0.655622 60.6364 -0.708447 60.6913C-0.73414 60.7176 -0.754337 60.7488 -0.767841 60.783C-0.781345 60.8172 -0.788038 60.8537 -0.787321 60.8906V61.5499C-0.787321 61.6278 -0.76115 61.6932 -0.708447 61.7455C-0.655622 61.7981 -0.59049 61.8246 -0.512449 61.8246H0.517605C0.558359 61.8236 0.598873 61.831 0.636637 61.8462C0.674522 61.8615 0.70882 61.8843 0.737503 61.9132C0.7969 61.9721 0.826778 62.0448 0.826778 62.1311V62.3492C0.826778 62.4352 0.7969 62.508 0.737503 62.5672C0.709896 62.5956 0.676674 62.6181 0.640104 62.6332C0.603415 62.6485 0.564096 62.6561 0.524418 62.6556H-0.512568C-0.590488 62.6556 -0.655622 62.682 -0.708447 62.7346C-0.734261 62.7602 -0.754576 62.7906 -0.76808 62.8242C-0.781704 62.8579 -0.788158 62.894 -0.787321 62.9303V63.6723C-0.787321 63.7502 -0.76115 63.8153 -0.708447 63.8679C-0.655622 63.9205 -0.59049 63.9468 -0.512449 63.9468H1.74712C1.83401 63.9468 1.90727 63.9767 1.96702 64.0359C2.0263 64.0956 2.05629 64.1691 2.05629 64.2558V64.4619C2.05629 64.5491 2.0263 64.6233 1.96702 64.685C1.93894 64.7151 1.90487 64.7389 1.86699 64.7549C1.82911 64.7708 1.78823 64.7787 1.74712 64.7778H-1.30241C-1.39407 64.7778 -1.4696 64.7482 -1.529 64.6887C-1.55816 64.66 -1.58111 64.6258 -1.5964 64.5879C-1.61182 64.5502 -1.61923 64.5096 -1.61827 64.4688V60.08C-1.61827 59.9977 -1.58863 59.9266 -1.529 59.8672C-1.4696 59.8078 -1.39635 59.7778 -1.3091 59.7778H1.74712C1.78776 59.7725 1.82911 59.7773 1.86747 59.7919C1.90583 59.8064 1.94001 59.8301 1.96702 59.8611C2.0263 59.9256 2.05629 60.0019 2.05629 60.0895V60.2973C2.05713 60.3383 2.04972 60.3791 2.03442 60.4172C2.01901 60.4553 1.99618 60.4898 1.96702 60.5188C1.93858 60.548 1.90428 60.5712 1.86651 60.5868C1.82863 60.6023 1.788 60.6098 1.74712 60.609H-0.512568ZM6.64045 59.9083C6.83501 59.9953 7.00101 60.1086 7.13845 60.2483C7.27337 60.3844 7.38273 60.5439 7.46125 60.7187C7.53929 60.8927 7.57801 61.0646 7.57801 61.2338V61.2407C7.57801 61.4147 7.55972 61.5647 7.52303 61.6906C7.48646 61.8166 7.43722 61.9253 7.37532 62.0168C7.31676 62.105 7.24493 62.1839 7.16247 62.2503C7.08336 62.3138 6.99958 62.3712 6.91186 62.422C6.82485 62.4725 6.76629 62.5183 6.73666 62.5594C6.7069 62.6007 6.69208 62.6419 6.69208 62.683C6.69208 62.7244 6.70224 62.7645 6.72303 62.8032C6.74371 62.8422 6.76522 62.8823 6.78828 62.9234L7.48861 64.2489C7.5253 64.3269 7.53343 64.4047 7.51276 64.4824C7.4922 64.5606 7.44511 64.6199 7.37197 64.6611L7.20023 64.7504C7.12435 64.7868 7.03806 64.7953 6.95644 64.7744C6.91664 64.7659 6.87935 64.748 6.8478 64.7224C6.81613 64.6967 6.79103 64.664 6.77442 64.6267L5.64123 62.5113C5.60012 62.4334 5.58865 62.3545 5.60681 62.2745C5.6251 62.1943 5.67326 62.136 5.75106 62.0993L6.03275 61.9688C6.23878 61.8772 6.39199 61.7754 6.49286 61.6632C6.59348 61.551 6.6395 61.4079 6.63029 61.2338C6.63029 61.1652 6.61655 61.0943 6.58894 61.0208C6.56098 60.947 6.52034 60.8785 6.46883 60.8185C6.41625 60.7565 6.351 60.7062 6.27308 60.6673C6.19516 60.6283 6.10361 60.6088 5.99833 60.6088H5.07798C5.00018 60.6088 4.93481 60.6364 4.88222 60.6913C4.85653 60.7176 4.83621 60.7487 4.82271 60.783C4.80908 60.8172 4.80251 60.8537 4.80323 60.8906C4.79857 61.5634 4.79642 62.1612 4.79642 62.6832V63.9125C4.79642 64.0817 4.79857 64.2672 4.80323 64.4686C4.80323 64.5556 4.77395 64.6289 4.71479 64.6885C4.68647 64.7176 4.65253 64.7404 4.61512 64.7559C4.57759 64.7712 4.53732 64.7787 4.49681 64.7777H4.29256C4.20173 64.7777 4.1268 64.748 4.06788 64.6885C4.03884 64.6598 4.01602 64.6255 4.00072 64.5877C3.98554 64.5499 3.97813 64.5094 3.97909 64.4686V60.0798C3.97909 59.9973 4.00861 59.9265 4.06764 59.8668C4.12668 59.8074 4.19934 59.7777 4.28563 59.7777H5.99833C6.23197 59.7777 6.44577 59.8213 6.64045 59.9083ZM10.7178 64.4756C10.7178 64.558 10.6881 64.6291 10.6286 64.6885C10.6001 64.7176 10.5658 64.7406 10.528 64.7559C10.4902 64.7712 10.4497 64.7787 10.409 64.7777H10.2029C10.1205 64.7777 10.0483 64.7481 9.98661 64.6885C9.95708 64.6616 9.93354 64.6286 9.91753 64.592C9.90152 64.5553 9.89351 64.5156 9.89387 64.4756V60.087C9.89387 59.9953 9.92362 59.9198 9.98302 59.8601C10.0427 59.8007 10.1135 59.771 10.196 59.771H10.409C10.4958 59.771 10.5693 59.8007 10.6287 59.8601C10.6881 59.9198 10.718 59.993 10.718 60.08L10.7178 64.4756ZM13.638 64.6816C13.583 64.7413 13.5121 64.7709 13.4251 64.7709H13.2052C13.1274 64.7709 13.0586 64.7413 12.9993 64.6816C12.9397 64.6222 12.9099 64.5535 12.9099 64.4756V60.0938C12.9099 60.0068 12.9397 59.9312 12.9992 59.8671C13.0587 59.803 13.1274 59.771 13.2054 59.771H13.4251C13.4664 59.771 13.5064 59.7802 13.5452 59.7984C13.5841 59.8166 13.6265 59.8511 13.6724 59.9013L15.9527 63.15V60.1006C15.9527 60.0091 15.9823 59.9323 16.0419 59.8705C16.1013 59.8085 16.17 59.7778 16.248 59.7778H16.4679C16.5546 59.7778 16.6256 59.8085 16.6807 59.8705C16.7356 59.9323 16.7631 60.0092 16.7631 60.1006V64.4756C16.7631 64.5673 16.7356 64.6405 16.6807 64.6955C16.6257 64.7504 16.5546 64.7778 16.4679 64.7778H16.2342C16.1931 64.7778 16.1519 64.7676 16.1105 64.7468C16.0694 64.7262 16.0325 64.6911 16.0006 64.6405L13.7203 61.3918V64.4756C13.7203 64.5537 13.693 64.6222 13.638 64.6816ZM18.5282 61.131C18.5282 60.815 18.598 60.5484 18.7377 60.3309C18.8773 60.1134 19.0456 59.9565 19.2425 59.8604C19.3569 59.8054 19.5011 59.7598 19.6753 59.7229C19.849 59.6864 20.0919 59.668 20.4032 59.668C20.7235 59.668 20.9698 59.6874 21.1417 59.7263C21.3133 59.7654 21.4495 59.8099 21.5501 59.8601C21.6601 59.9154 21.7598 59.994 21.8489 60.0972C21.936 60.1972 22.013 60.3052 22.0791 60.4202C22.143 60.5323 22.1921 60.6432 22.2267 60.7531C22.261 60.8629 22.2782 60.9523 22.2782 61.0208V61.2407C22.2782 61.3782 22.2071 61.4468 22.0653 61.4468L21.7288 61.4537C21.6371 61.4537 21.5743 61.4342 21.54 61.3954C21.5056 61.3566 21.4837 61.3026 21.4746 61.2339C21.4607 61.0784 21.4171 60.9419 21.3436 60.8253C21.2702 60.7085 21.1762 60.625 21.0611 60.5746C21.0149 60.5505 20.9663 60.5311 20.9165 60.5163C20.8747 60.5048 20.832 60.4967 20.789 60.4921C20.7397 60.4873 20.6903 60.4851 20.6408 60.4853H20.4272C20.2527 60.4853 20.1149 60.491 20.014 60.5025C19.9127 60.514 19.8256 60.538 19.752 60.5746C19.6373 60.6295 19.5407 60.7154 19.4625 60.8322C19.3845 60.949 19.3454 61.0852 19.3454 61.2407V63.3219C19.3454 63.4777 19.3845 63.6137 19.4624 63.7306C19.5405 63.8473 19.6369 63.9329 19.7518 63.988C19.8251 64.0247 19.9123 64.0488 20.0131 64.0602C20.1143 64.0717 20.252 64.0774 20.4265 64.0774H20.6397C20.6948 64.0774 20.7442 64.0751 20.7877 64.0704C20.8314 64.0659 20.8737 64.058 20.9151 64.0463C20.9564 64.0351 21.0046 64.0156 21.0597 63.988C21.1561 63.9467 21.2411 63.8781 21.3143 63.782C21.3419 63.7406 21.358 63.6939 21.3626 63.6413C21.3673 63.5905 21.3626 63.5392 21.3488 63.4903C21.3369 63.4454 21.3145 63.4042 21.2834 63.3699C21.2701 63.3547 21.2536 63.3427 21.2352 63.3343C21.2168 63.326 21.1969 63.3219 21.1767 63.322C21.1629 63.322 21.1285 63.3231 21.0735 63.3252C21.0151 63.3276 20.9565 63.3288 20.898 63.3287C20.8358 63.3287 20.7752 63.3264 20.7155 63.322C20.656 63.3172 20.612 63.3105 20.5847 63.3013C20.5066 63.2693 20.4585 63.2155 20.44 63.1398C20.4217 63.0643 20.4126 63.006 20.4126 62.9645V62.8068C20.4126 62.7198 20.4424 62.6465 20.5018 62.5869C20.5618 62.5275 20.6352 62.4977 20.7224 62.4977H21.9892C22.0669 62.4977 22.1348 62.5275 22.1921 62.5869C22.2495 62.6465 22.2782 62.7198 22.2782 62.8068V63.4181C22.2725 63.5599 22.2552 63.7012 22.2267 63.8403C22.1969 63.9893 22.1566 64.1117 22.1066 64.2079C22.0608 64.2887 22.0053 64.3635 21.9417 64.431C21.8821 64.4928 21.7929 64.5582 21.6738 64.6268C21.6524 64.6395 21.6319 64.6532 21.6122 64.6681C21.593 64.6822 21.5721 64.6937 21.55 64.7023C21.4495 64.7528 21.3133 64.7973 21.1417 64.8362C20.9698 64.8751 20.7236 64.8947 20.4032 64.8947C20.0919 64.8947 19.8492 64.8763 19.6753 64.8398C19.5011 64.8031 19.3569 64.7573 19.2425 64.7023C19.0456 64.6062 18.8773 64.4494 18.7377 64.2318C18.598 64.0144 18.5282 63.7478 18.5282 63.4318V61.131ZM29.9812 62.6919C29.8943 62.6919 29.8211 62.66 29.7615 62.5967C29.702 62.5329 29.6724 62.458 29.6724 62.3718V62.2355C29.6724 62.1494 29.702 62.0744 29.7615 62.0108C29.8211 61.9471 29.892 61.9152 29.9745 61.9152L30.3455 61.8882C30.4049 61.8882 30.4665 61.8745 30.5309 61.8468C30.595 61.8191 30.6533 61.7766 30.7059 61.7191C30.7585 61.6614 30.8021 61.5911 30.8365 61.5083C30.8708 61.4255 30.888 61.329 30.888 61.2182C30.888 61.1494 30.8743 61.0781 30.8466 61.0044C30.8187 60.9301 30.7781 60.8612 30.7266 60.8008C30.6739 60.7387 30.6086 60.6869 30.5309 60.6453C30.4528 60.6039 30.3614 60.5832 30.2561 60.5832C30.2561 60.5786 30.2103 60.5762 30.1186 60.5762H29.8062C29.6894 60.5762 29.5761 60.5776 29.4663 60.5798C29.3564 60.5822 29.283 60.5833 29.2464 60.5833C29.2099 60.5825 29.1735 60.5894 29.1397 60.6036C29.106 60.6177 29.0757 60.6389 29.0507 60.6656C29.025 60.6919 29.0047 60.7231 28.9912 60.7573C28.9776 60.7915 28.971 60.8281 28.9717 60.8649V63.7358C28.9717 63.8138 28.998 63.8789 29.0507 63.9315C29.1033 63.9841 29.1685 64.0105 29.2464 64.0105H30.2491C30.3543 64.0105 30.4461 63.9898 30.5239 63.9487C30.6018 63.9072 30.6683 63.856 30.7231 63.7942C30.7781 63.7323 30.8192 63.6647 30.8467 63.5916C30.8743 63.5183 30.888 63.4472 30.888 63.3787C30.888 63.2688 30.8719 63.1737 30.8399 63.0935C30.811 63.0184 30.7678 62.9497 30.7128 62.8909C30.6634 62.8383 30.6037 62.7963 30.5376 62.7673C30.4788 62.7413 30.4162 62.725 30.3523 62.7192L29.9812 62.6919ZM30.311 64.7865C29.963 64.782 29.6516 64.7796 29.377 64.7796H28.7383C28.651 64.7796 28.5572 64.782 28.4565 64.7865C28.3649 64.7865 28.2892 64.7556 28.2299 64.6937C28.1704 64.6319 28.1407 64.5599 28.1407 64.4775V60.0956C28.1407 60.0131 28.1704 59.9422 28.2299 59.8826C28.2894 59.8232 28.3649 59.7935 28.4565 59.7935H30.3041C30.5378 59.7935 30.7403 59.83 30.9119 59.9032C31.0837 59.9765 31.2279 60.0737 31.3447 60.1952C31.4606 60.3152 31.5506 60.4578 31.609 60.614C31.6684 60.7721 31.7029 60.9381 31.7122 61.112C31.7122 61.1532 31.7098 61.2116 31.7052 61.2873C31.6997 61.3693 31.6883 61.4507 31.6711 61.5311C31.6513 61.6222 31.6249 61.7116 31.5919 61.7988C31.558 61.8895 31.5155 61.977 31.465 62.0598C31.4411 62.1023 31.4135 62.1425 31.3824 62.1801C31.3504 62.219 31.3343 62.2592 31.3343 62.3003C31.3343 62.3369 31.3503 62.3746 31.3824 62.4133C31.4144 62.4525 31.4442 62.4926 31.4717 62.5337C31.5224 62.6171 31.5639 62.7058 31.5953 62.7982C31.6272 62.8921 31.6525 62.9826 31.6711 63.0696C31.6892 63.1566 31.7007 63.2377 31.7052 63.3134C31.7098 63.3889 31.7122 63.4472 31.7122 63.4885L31.719 63.4816C31.7105 63.6519 31.6757 63.8199 31.6161 63.9795C31.558 64.1351 31.4679 64.2766 31.3515 64.3949C31.2347 64.5142 31.0905 64.6091 30.9189 64.6802C30.7471 64.7511 30.5444 64.7865 30.311 64.7865ZM34.7616 60.6174C34.6834 60.6174 34.6184 60.645 34.5656 60.6999C34.5399 60.7262 34.5197 60.7574 34.5062 60.7916C34.4927 60.8258 34.4861 60.8623 34.4868 60.8992V61.5585C34.4868 61.6363 34.5131 61.7015 34.5657 61.754C34.6183 61.8067 34.6837 61.833 34.7616 61.833H35.7918C35.8324 61.8321 35.8729 61.8395 35.9107 61.8546C35.9484 61.8699 35.9827 61.8926 36.0114 61.9217C36.0711 61.9806 36.1007 62.0533 36.1007 62.1397V62.3577C36.1015 62.3982 36.0941 62.4384 36.0788 62.4759C36.0634 62.5134 36.0405 62.5473 36.0114 62.5756C35.9838 62.604 35.9507 62.6266 35.9141 62.6417C35.8776 62.6569 35.8382 62.6646 35.7986 62.6641H34.7616C34.6834 62.6641 34.6184 62.6905 34.5656 62.7431C34.5398 62.7687 34.5195 62.7992 34.506 62.8329C34.4923 62.8666 34.4859 62.9027 34.4868 62.9391V63.6805C34.4868 63.7586 34.5131 63.8236 34.5657 63.8761C34.6183 63.929 34.6837 63.9551 34.7616 63.9551H37.021C37.1083 63.9551 37.1814 63.985 37.2409 64.0444C37.3004 64.1041 37.3302 64.1773 37.3302 64.2643V64.4702C37.3302 64.5574 37.3004 64.6316 37.2409 64.6935C37.2128 64.7235 37.1788 64.7473 37.1409 64.7631C37.103 64.7792 37.0622 64.7871 37.021 64.7862H33.9716C33.8801 64.7862 33.8043 64.7566 33.745 64.6969C33.7159 64.6684 33.6929 64.6342 33.6776 64.5963C33.6622 64.5585 33.6548 64.518 33.6556 64.4772V60.0884C33.6556 60.0059 33.6855 59.9351 33.7449 59.8754C33.8046 59.816 33.8778 59.7863 33.9648 59.7863H37.021C37.0618 59.7808 37.1031 59.7856 37.1415 59.8001C37.1799 59.8146 37.214 59.8384 37.2409 59.8695C37.3004 59.9341 37.3302 60.0102 37.3302 60.0981V60.3056C37.3302 60.3934 37.3004 60.4673 37.2409 60.5272C37.2125 60.5565 37.1783 60.5797 37.1404 60.5952C37.1025 60.6108 37.0619 60.6183 37.021 60.6174H34.7616ZM40.4376 62.5887C40.4284 62.6619 40.4456 62.7054 40.4892 62.7191C40.5327 62.7329 40.5776 62.7421 40.6231 62.7465H41.3306C41.3763 62.7421 41.4198 62.7329 41.4612 62.7191C41.5022 62.7054 41.5183 62.6642 41.5092 62.5955L40.9734 60.9336L40.4376 62.5887ZM39.8815 64.5597C39.8612 64.6389 39.8105 64.7066 39.7405 64.7486C39.7079 64.7697 39.6709 64.7835 39.6323 64.7888C39.5938 64.7942 39.5545 64.7911 39.5174 64.7796L39.3181 64.7176C39.2803 64.7069 39.245 64.6886 39.2143 64.6638C39.1837 64.639 39.1583 64.6084 39.1397 64.5736C39.0985 64.5003 39.0892 64.4248 39.1121 64.3469L40.4033 60.075C40.4261 59.9926 40.472 59.9237 40.5407 59.869C40.6093 59.8138 40.6827 59.7864 40.7606 59.7864H41.1932C41.2709 59.7864 41.3441 59.8138 41.4131 59.869C41.4816 59.9237 41.5274 59.9926 41.5503 60.075L42.8415 64.347C42.8529 64.3847 42.8563 64.4242 42.8516 64.4632C42.8469 64.5023 42.8341 64.5398 42.814 64.5736C42.7955 64.6084 42.7702 64.639 42.7395 64.6637C42.7087 64.6885 42.6735 64.7069 42.6356 64.7176L42.4364 64.7798C42.3992 64.7912 42.36 64.7943 42.3214 64.789C42.2829 64.7836 42.246 64.7697 42.2134 64.7486C42.1432 64.7067 42.0926 64.6389 42.0724 64.5597L41.8593 63.8044C41.8319 63.7036 41.7872 63.6326 41.7254 63.5915C41.6636 63.5501 41.5916 63.5296 41.5092 63.5296H40.4444C40.3667 63.5283 40.2904 63.5498 40.2247 63.5915C40.1607 63.6326 40.1172 63.7036 40.0942 63.8043L39.8815 64.5597ZM47.3984 59.9169C47.593 60.0039 47.7591 60.1172 47.8964 60.2569C48.0314 60.3932 48.1407 60.5525 48.2192 60.7273C48.297 60.9015 48.3359 61.0732 48.3359 61.2425V61.2493C48.3359 61.4236 48.3177 61.5733 48.2811 61.6992C48.2444 61.8252 48.1952 61.9339 48.1334 62.0254C48.0747 62.1136 48.0029 62.1924 47.9205 62.2589C47.8413 62.3224 47.7576 62.3798 47.6698 62.4306C47.5827 62.4811 47.5244 62.5269 47.4948 62.5681C47.4648 62.6092 47.4501 62.6505 47.4501 62.6916C47.4501 62.7329 47.4603 62.7731 47.4809 62.8118C47.5016 62.8508 47.5232 62.8909 47.5461 62.932L48.2467 64.2576C48.2833 64.3355 48.2914 64.4133 48.2707 64.4913C48.2502 64.5689 48.2032 64.6285 48.1298 64.6697L47.9582 64.759C47.8823 64.7954 47.796 64.8039 47.7144 64.783C47.6746 64.7745 47.6373 64.7567 47.6058 64.731C47.5741 64.7053 47.549 64.6726 47.5325 64.6353L46.3992 62.52C46.358 62.4423 46.3466 62.3632 46.3648 62.2831C46.383 62.203 46.4312 62.1446 46.509 62.1079L46.7907 61.9774C46.9968 61.8858 47.1501 61.784 47.2507 61.6718C47.3515 61.5596 47.3974 61.4165 47.3883 61.2425C47.3883 61.1738 47.3744 61.1029 47.347 61.0294C47.319 60.9554 47.2783 60.887 47.2268 60.827C47.1742 60.7651 47.109 60.7148 47.0311 60.6759C46.9531 60.637 46.8616 60.6174 46.7563 60.6174H45.836C45.7582 60.6174 45.6928 60.645 45.6402 60.6999C45.6145 60.7262 45.5942 60.7573 45.5807 60.7916C45.5671 60.8258 45.5605 60.8623 45.5612 60.8992C45.5565 61.5722 45.5544 62.1698 45.5544 62.6916V63.9211C45.5544 64.0904 45.5565 64.2759 45.5612 64.4774C45.5612 64.5644 45.5317 64.6377 45.4728 64.6973C45.4444 64.7263 45.4105 64.7492 45.3731 64.7646C45.3356 64.7799 45.2953 64.7874 45.2548 64.7865H45.0503C44.9595 64.7865 44.8847 64.7567 44.8256 64.6973C44.7967 64.6686 44.774 64.6342 44.7587 64.5964C44.7435 64.5587 44.7361 64.5182 44.7371 64.4774V60.0886C44.7371 60.0063 44.7666 59.9352 44.8256 59.8757C44.8847 59.8164 44.9573 59.7864 45.0436 59.7864H46.7563C46.9899 59.7864 47.2038 59.83 47.3984 59.9169ZM-20.7892 62.9091L-20.1002 59.9966C-20.0774 59.9142 -20.0317 59.8524 -19.963 59.8113C-19.8941 59.7698 -19.8164 59.7609 -19.7292 59.7837L-19.537 59.8318C-19.4502 59.8548 -19.386 59.9029 -19.3447 59.9761C-19.3036 60.0493 -19.2897 60.125 -19.3036 60.2028L-20.4184 64.5712C-20.446 64.7085 -20.5467 64.7773 -20.7207 64.7773H-20.8512C-20.9289 64.7773 -20.9919 64.7624 -21.04 64.7327C-21.0881 64.703 -21.1237 64.6491 -21.1464 64.5712L-22.0372 61.374L-22.9212 64.5712C-22.9443 64.6491 -22.9797 64.703 -23.0277 64.7327C-23.076 64.7624 -23.1389 64.7773 -23.2167 64.7773H-23.3472C-23.5213 64.7773 -23.6219 64.7085 -23.6495 64.5712L-24.7644 60.2027C-24.7781 60.1249 -24.7644 60.0492 -24.723 59.9758C-24.6819 59.9026 -24.6178 59.8546 -24.5306 59.8317L-24.3385 59.7835C-24.2515 59.7607 -24.1735 59.7698 -24.1049 59.8111C-24.0362 59.8523 -23.9905 59.914 -23.9675 59.9964L-23.2785 62.909L-22.4356 60.0379C-22.4128 59.9508 -22.3682 59.8855 -22.3017 59.8419C-22.2354 59.7985 -22.1634 59.7765 -22.0855 59.7765H-21.9824C-21.9046 59.7765 -21.8324 59.7985 -21.766 59.8419C-21.6997 59.8855 -21.6551 59.9508 -21.6321 60.0379L-20.7892 62.9091Z" fill="#FFFCF7"/>
</g>
</g>
</g>
</g>
</g>
<g clip-path="url(#clip4_0_471)">
<g clip-path="url(#clip5_0_471)">
<g clip-path="url(#clip6_0_471)">
<path d="M192.785 61.9508C191.628 61.9508 190.539 61.9508 189.412 61.9508C189.412 56.0757 189.412 50.2394 189.412 44.3671C190.975 44.3671 192.532 44.3671 194.126 44.3671C194.126 44.9653 194.126 45.5503 194.126 46.3266C195.838 44.6208 197.838 43.9717 200.059 44.0714C202.293 44.1717 204.237 44.929 205.46 46.8182C206.341 46.1899 207.155 45.4788 208.082 44.9773C209.668 44.1193 211.382 43.9265 213.192 44.1658C214.703 44.3657 216.02 44.8513 217.115 45.9153C218.212 46.9801 218.927 48.3287 218.97 49.7887C219.091 53.8197 219.012 57.8565 219.012 61.921C217.461 61.921 215.829 61.921 214.095 61.921C214.095 61.6989 214.095 61.4606 214.095 61.2221C214.095 58.1037 214.127 54.9848 214.081 51.8669C214.06 50.399 213.301 48.9019 211.675 48.5357C209.787 48.1103 207.824 48.7547 207.151 50.8073C206.892 51.5961 206.753 52.4566 206.739 53.2874C206.69 56.1503 206.72 59.0145 206.72 61.9145C205.029 61.9145 203.381 61.9145 201.666 61.9145C201.666 61.2041 201.666 60.5053 201.666 59.8065C201.666 57.1661 201.746 54.5224 201.64 51.8862C201.56 49.8967 200.803 48.8445 199.148 48.4981C197.033 48.0553 195.196 48.9271 194.585 51.2284C194.37 52.0381 194.314 52.907 194.303 53.7503C194.269 56.4557 194.291 59.1619 194.291 61.9508C193.792 61.9508 193.323 61.9508 192.785 61.9508Z" fill="#FFFCF7"/>
<path d="M175.265 44.4259C177.491 43.8665 179.65 43.9273 181.757 44.7018C185.157 45.9512 187.137 48.3312 187.621 51.9805C187.868 53.8414 187.587 55.5774 186.789 57.2226C185.497 59.8833 183.271 61.33 180.426 61.9616C177.961 62.509 175.567 62.2641 173.321 61.2086C170.944 60.0913 169.315 58.2054 168.666 55.6201C167.826 52.2718 168.505 49.2452 170.941 46.7444C172.101 45.5541 173.558 44.7838 175.265 44.4259ZM176.28 57.8031C176.596 57.8924 176.909 58.0003 177.23 58.0677C178.563 58.3477 180.507 57.8006 181.477 56.5667C182.539 55.2152 182.822 53.7013 182.534 52.0625C182.353 51.0347 181.947 50.106 181.139 49.3707C179.895 48.2385 178.455 47.9355 176.866 48.3062C175.996 48.5091 175.189 48.92 174.634 49.6465C173.638 50.9517 173.217 52.4089 173.521 54.0698C173.826 55.7415 174.55 57.0628 176.28 57.8031Z" fill="#FFFCF7"/>
<path d="M165.896 62.3604C162.437 62.2511 159.227 59.8982 158.644 56.407C158.575 55.9906 158.513 55.5665 158.512 55.1458C158.503 49.5736 158.506 44.0014 158.506 38.4292C158.506 38.185 158.506 37.9408 158.506 37.668C160.148 37.668 161.734 37.668 163.423 37.668C163.423 37.8874 163.423 38.1253 163.423 38.3631C163.423 43.7534 163.493 49.145 163.389 54.5332C163.347 56.6896 165.294 57.7987 167.112 57.3638C167.486 57.2745 167.668 57.3276 167.85 57.6815C168.495 58.9355 169.265 60.1022 170.386 60.9993C170.622 61.1888 170.589 61.3139 170.224 61.4873C169.157 61.995 168.056 62.3865 166.849 62.3614C166.553 62.3551 166.257 62.3604 165.896 62.3604Z" fill="#FFFCF7"/>
<path d="M225.843 60.3099C225.843 60.8752 225.843 61.3725 225.843 61.9101C224.162 61.9101 222.515 61.9101 220.828 61.9101C220.828 56.0793 220.828 50.2461 220.828 44.3721C222.471 44.3721 224.118 44.3721 225.843 44.3721C225.843 49.6606 225.843 54.9514 225.843 60.3099Z" fill="#FFFCF7"/>
<path d="M225.822 40.6912C225.643 41.7493 224.86 42.4535 223.79 42.5405C222.32 42.6599 221.533 42.1964 221.046 41.1323C220.572 40.0989 220.852 39.0897 221.449 38.4213C222.103 37.6898 223.37 37.3876 224.21 37.7161C225.229 38.1146 225.841 39.0044 225.842 40.0896C225.842 40.2714 225.862 40.4594 225.822 40.6912Z" fill="#FFFCF7"/>
</g>
</g>
</g>
<g clip-path="url(#clip7_0_471)">
<g clip-path="url(#clip8_0_471)">
<g clip-path="url(#clip9_0_471)">
<path d="M415.569 38.2602C415.372 38.2973 415.131 38.4342 414.978 38.5896C414.595 38.9794 414.509 39.5361 414.758 40.0256C414.846 40.1996 415.087 40.4455 415.256 40.536C415.593 40.7169 416.075 40.7169 416.411 40.536C416.6 40.4362 416.829 40.1927 416.925 39.9955C417.365 39.0652 416.581 38.0607 415.569 38.2602Z" fill="#FFFCF7"/>
<path d="M347.291 38.4351C344.869 38.6045 342.7 39.4002 340.797 40.8223C339.918 41.4788 339.009 42.3905 338.345 43.2814C337.598 44.2882 336.979 45.4829 336.578 46.6916C335.826 48.9627 335.782 51.5309 336.457 53.8368C336.814 55.0548 337.39 56.2634 338.095 57.2819C338.99 58.5763 340.095 59.6551 341.398 60.5181C345.398 63.1604 350.643 63.1604 354.645 60.5181C355.383 60.0309 355.87 59.6319 356.526 58.9753C357.013 58.4905 357.322 58.1356 357.691 57.6414C360.389 54.0271 360.825 49.146 358.811 45.1025C358.554 44.5875 358.382 44.2905 358.041 43.7801C357.561 43.0587 357.136 42.5437 356.508 41.9196C355.526 40.9453 354.536 40.2377 353.311 39.6392C352.028 39.0128 350.729 38.6393 349.263 38.4792C348.943 38.4421 347.602 38.4143 347.291 38.4351ZM344.588 44.5086C345.495 44.6733 346.219 45.0839 346.95 45.8471L347.244 46.1534V45.4064V44.6617H348.022H348.799V45.404V46.1441L349.165 45.7799C349.365 45.578 349.62 45.346 349.731 45.2626C350.263 44.8682 350.812 44.6269 351.455 44.5086C351.638 44.4738 351.796 44.4645 352.197 44.4668C352.659 44.4668 352.736 44.4738 352.998 44.5295C354.589 44.8682 355.84 45.9655 356.336 47.4572C356.821 48.9141 356.517 50.5031 355.538 51.6445C354.953 52.3266 354.028 52.8624 353.104 53.0481C352.337 53.2035 351.508 53.1524 350.792 52.9088C350.462 52.7952 349.947 52.5354 349.68 52.3475C349.553 52.257 349.321 52.0505 349.126 51.8556L348.792 51.5216L348.806 52.1456C348.831 53.243 348.947 53.7742 349.263 54.2451C349.571 54.7021 350.209 55.1359 350.847 55.3192C351.668 55.5559 352.84 55.5327 353.615 55.2612C354.227 55.0478 354.768 54.6233 355.144 54.0596L355.299 53.8252H355.867H356.433L356.42 53.8762C356.392 53.969 356.109 54.4794 355.956 54.7067C355.568 55.2891 355.158 55.6417 354.501 55.9595C354.014 56.1939 353.462 56.3516 352.859 56.4281C352.492 56.4745 351.569 56.4676 351.235 56.4166C350.386 56.2843 349.717 56.0152 349.158 55.5767C348.701 55.2172 348.323 54.723 348.103 54.1918C348.061 54.092 348.017 54.0178 348.008 54.0247C347.996 54.0317 347.987 54.0479 347.987 54.0596C347.987 54.0735 347.933 54.1941 347.871 54.3287C347.328 55.4816 346.289 56.1892 344.809 56.4166C344.474 56.4676 343.551 56.4745 343.185 56.4281C342.588 56.3516 342.022 56.1915 341.542 55.9595C340.883 55.6417 340.475 55.2891 340.088 54.7067C339.934 54.4794 339.651 53.969 339.624 53.8762L339.61 53.8252H340.176H340.744L340.9 54.0596C341.275 54.6233 341.816 55.0478 342.428 55.2612C343.203 55.5327 344.375 55.5559 345.196 55.3192C345.623 55.1963 346.108 54.9318 346.43 54.6465C346.741 54.3704 346.985 53.9598 347.091 53.5352C347.186 53.1571 347.224 52.8138 347.237 52.1456L347.251 51.5216L346.917 51.8556C346.521 52.2547 346.261 52.4449 345.818 52.6653C345.256 52.9437 344.758 53.0805 344.14 53.1269C342.609 53.2452 341.041 52.4959 340.206 51.2502C339.041 49.5172 339.303 47.1533 340.821 45.694C341.503 45.0399 342.398 44.606 343.347 44.4761C343.579 44.4459 344.347 44.4645 344.588 44.5086Z" fill="#FFFCF7"/>
<path d="M343.601 45.4922C343.311 45.5247 342.946 45.6175 342.67 45.7288C341.603 46.165 340.875 47.0465 340.629 48.2041C340.559 48.5336 340.552 49.2156 340.617 49.5497C340.745 50.2016 341.019 50.7212 341.478 51.1829C342.141 51.8487 343 52.1549 344.099 52.1178C344.693 52.0969 345.108 52.0064 345.54 51.8023C345.879 51.6399 346.108 51.4775 346.387 51.1991C346.834 50.7514 347.083 50.2897 347.224 49.6355C347.271 49.429 347.275 49.3293 347.278 48.8421C347.278 48.3433 347.273 48.2599 347.224 48.044C347.071 47.369 346.811 46.8841 346.352 46.4294C345.879 45.9585 345.338 45.6731 344.675 45.5363C344.394 45.4806 343.891 45.4598 343.601 45.4922Z" fill="#FFFCF7"/>
<path d="M351.653 45.4999C351.229 45.5441 350.744 45.7018 350.368 45.9175C349.508 46.4117 348.972 47.1888 348.8 48.191C348.758 48.4416 348.751 48.539 348.763 48.9543C348.777 49.4785 348.814 49.7152 348.944 50.0841C349.104 50.5341 349.308 50.8565 349.658 51.2069C350.132 51.6801 350.651 51.9446 351.366 52.0792C351.665 52.1348 352.535 52.1348 352.832 52.0792C353.185 52.0119 353.437 51.9306 353.732 51.7868C354.63 51.3484 355.235 50.5526 355.428 49.5574C355.493 49.2234 355.486 48.5414 355.416 48.2119C355.316 47.7409 355.149 47.3442 354.894 46.9592C354.205 45.9291 352.946 45.3631 351.653 45.4999Z" fill="#FFFCF7"/>
<path d="M376.463 42.6257C375.25 42.7185 374.101 43.1175 373.041 43.8181C371.96 44.5303 371.148 45.449 370.582 46.602C370.209 47.3606 370.011 48.0101 369.895 48.8523C369.837 49.2722 369.837 50.3068 369.893 50.7198C370.174 52.7451 371.176 54.3944 372.798 55.5034C373.783 56.1784 374.851 56.5844 376.045 56.7445C376.468 56.8002 377.437 56.7978 377.855 56.7422C379.634 56.5009 381.163 55.7005 382.253 54.4386L382.46 54.1996V54.6914C382.458 56.0555 382.302 56.8837 381.885 57.7142C381.56 58.3661 381.151 58.8185 380.488 59.2616C379.769 59.7418 379.017 60.0132 378.006 60.1547C377.593 60.2127 376.361 60.2127 375.929 60.1547C374.472 59.9598 373.38 59.4193 372.57 58.4937C372.354 58.2477 372.09 57.8905 371.96 57.6678L371.872 57.517H370.891H369.912L369.949 57.6028C370.011 57.7583 370.25 58.2222 370.385 58.4589C371.218 59.9111 372.122 60.6953 373.642 61.2868C374.742 61.7136 375.96 61.9108 377.24 61.8691C378.945 61.8134 380.263 61.4284 381.427 60.6465C381.824 60.3798 382.068 60.1826 382.379 59.8717C383.044 59.2105 383.446 58.5517 383.766 57.5866C384.007 56.8651 384.135 56.197 384.225 55.1624C384.246 54.9466 384.255 53.1116 384.262 48.7409L384.272 42.6234H383.367H382.46L382.455 43.9712L382.448 45.3191L382.181 45.0221C381.423 44.1823 380.546 43.5258 379.688 43.1546C378.681 42.7208 377.579 42.5422 376.463 42.6257ZM377.426 44.2264C378.648 44.3378 379.827 44.8736 380.683 45.7065C381.499 46.5045 381.966 47.4418 382.168 48.6968C382.256 49.2397 382.27 50.0284 382.205 50.5574C382.063 51.6779 381.634 52.5734 380.854 53.3783C380.411 53.8353 380.026 54.1184 379.479 54.3875C378.616 54.8097 377.6 54.9953 376.463 54.9396C375.994 54.9164 375.672 54.87 375.245 54.7656C374.259 54.5221 373.477 54.0697 372.763 53.3273C371.795 52.3228 371.324 51.0352 371.378 49.5367C371.408 48.6945 371.58 48.0078 371.951 47.2515C372.494 46.1473 373.313 45.3353 374.445 44.7785C375.101 44.4561 375.695 44.296 376.521 44.2171C376.711 44.1986 377.177 44.2032 377.426 44.2264Z" fill="#FFFCF7"/>
<path d="M393.887 42.6279C392.215 42.7555 390.774 43.4027 389.586 44.5627C388.92 45.2145 388.445 45.8548 388.06 46.6274C387.065 48.6155 387.067 51.1929 388.062 53.1787C388.582 54.2134 389.463 55.255 390.361 55.893C391.6 56.7746 393.064 57.1898 394.769 57.1411C395.291 57.1248 395.516 57.104 395.947 57.0321C397.743 56.7258 399.225 55.777 400.376 54.1995C401.081 53.232 401.51 52.158 401.687 50.9308C401.745 50.5178 401.745 49.3045 401.687 48.8893C401.443 47.1633 400.752 45.7992 399.497 44.5743C399.03 44.1149 398.624 43.8064 398.086 43.4955C396.91 42.8158 395.435 42.5119 393.887 42.6279ZM395.314 44.4235C396.434 44.5928 397.411 45.0986 398.258 45.9453C399.283 46.9684 399.817 48.1469 399.907 49.5922C399.975 50.6269 399.754 51.6592 399.276 52.5779C398.49 54.0904 397.133 55.0741 395.442 55.3641C395.082 55.4267 394.361 55.4476 393.978 55.4105C392.941 55.3061 391.932 54.9001 391.15 54.2691C390.322 53.6009 389.658 52.5756 389.357 51.4991C388.927 49.9703 389.157 48.256 389.964 46.98C390.391 46.3026 391.066 45.6113 391.707 45.196C391.971 45.0243 392.393 44.8063 392.674 44.6996C393.059 44.5511 393.639 44.4235 394.108 44.3794C394.319 44.3609 395.077 44.3887 395.314 44.4235Z" fill="#FFFCF7"/>
<path d="M414.92 50.4361C414.92 55.5816 414.91 58.3886 414.894 58.609C414.864 59.0451 414.799 59.3699 414.703 59.5486C414.532 59.871 414.211 60.0891 413.834 60.1447C413.49 60.1958 413.012 60.1007 412.578 59.8942C412.46 59.8386 412.358 59.7921 412.353 59.7921C412.347 59.7921 412.347 60.1587 412.349 60.6064L412.356 61.4207L412.506 61.4787C412.956 61.6504 413.604 61.7965 414.079 61.8336C414.859 61.8962 415.448 61.7153 415.912 61.2676C416.346 60.8523 416.592 60.2608 416.694 59.3792C416.724 59.124 416.729 57.9826 416.729 50.8443V42.6018H415.824H414.92V50.4361Z" fill="#FFFCF7"/>
<path d="M426.303 42.6221C425.522 42.6893 424.786 42.8726 424.099 43.1696C422.547 43.8423 421.102 45.2737 420.402 46.8396C419.638 48.5401 419.575 50.7022 420.236 52.4978C420.459 53.1033 420.909 53.8897 421.338 54.4302C421.575 54.7272 422.058 55.2237 422.371 55.4951C423.642 56.5901 425.162 57.1445 426.892 57.1445C428.996 57.1422 430.764 56.314 432.26 54.6274L432.404 54.4651V55.8037V57.1445H433.298H434.19V49.8717V42.5989H433.298H432.404V44.0186L432.402 45.4407L432.34 45.3595C431.961 44.877 431.678 44.5638 431.372 44.2854C430.344 43.3552 429.231 42.8401 427.857 42.6569C427.535 42.6128 426.64 42.5942 426.303 42.6221ZM427.892 44.3945C429.127 44.5777 430.077 45.0672 430.957 45.965C431.78 46.8118 432.249 47.7421 432.453 48.9345C432.515 49.3033 432.539 50.164 432.499 50.57C432.279 52.7391 430.971 54.4163 428.922 55.1564C428.333 55.3698 427.885 55.451 427.217 55.4673C426.359 55.4882 425.723 55.3721 424.988 55.0566C423.663 54.4883 422.631 53.4258 422.049 52.0338C421.726 51.2682 421.601 50.5769 421.624 49.7233C421.654 48.6306 421.967 47.6609 422.598 46.7166C423.329 45.6216 424.447 44.8329 425.714 44.5105C425.992 44.4409 426.357 44.3782 426.628 44.3527C426.839 44.3341 427.667 44.362 427.892 44.3945Z" fill="#FFFCF7"/>
<path d="M437.303 49.8718V57.1447H438.205H439.11L439.119 53.5187C439.129 49.7953 439.133 49.6352 439.229 48.7791C439.284 48.2804 439.342 47.988 439.462 47.6239C439.984 46.0232 441.411 44.7008 442.975 44.3644C443.332 44.2879 443.638 44.2624 444.086 44.2763C444.849 44.2971 445.413 44.4526 445.949 44.782C446.202 44.9397 446.622 45.348 446.791 45.5986C447.025 45.9535 447.213 46.3851 447.337 46.8606C447.552 47.6911 447.58 48.3894 447.58 53.3679V57.1447H448.473H449.368L449.359 52.7206C449.35 47.9046 449.354 48.0808 449.217 47.1228C449.016 45.7354 448.594 44.8145 447.791 44.0118C447.042 43.2648 446.134 42.8124 445.058 42.6524C444.648 42.592 443.803 42.5967 443.369 42.664C442.33 42.824 441.432 43.2184 440.551 43.8981C440.265 44.1185 439.597 44.7866 439.323 45.123L439.112 45.3852V43.9932V42.599H438.207H437.303V49.8718Z" fill="#FFFCF7"/>
<path d="M458.468 42.6221C456.437 42.803 454.754 43.7333 453.431 45.4059C452.624 46.4267 452.137 47.6376 451.979 49.0134C451.942 49.3405 451.942 50.3519 451.979 50.6837C452.176 52.4166 452.816 53.7784 454.013 55.0079C455.176 56.2004 456.5 56.8754 458.101 57.0911C458.521 57.1469 459.56 57.1469 459.964 57.0911C461.277 56.9079 462.368 56.4392 463.386 55.6227C463.648 55.4115 464.216 54.8594 464.448 54.5927L464.578 54.4419L464.581 55.7921V57.1445H465.462H466.343V49.8717V42.5989H465.462H464.581V44.0302L464.578 45.4639L464.515 45.3828C464.068 44.8074 463.611 44.3272 463.195 43.9978C462.261 43.2508 461.215 42.81 460.008 42.6569C459.667 42.6128 458.795 42.5942 458.468 42.6221ZM460.08 44.3968C461.226 44.5708 462.207 45.0626 463.031 45.8769C464.047 46.8791 464.587 48.097 464.671 49.5655C464.766 51.2427 464.248 52.7251 463.191 53.8132C462.527 54.4929 461.671 55.001 460.718 55.2747C460.251 55.4069 459.922 55.4557 459.37 55.4673C458.423 55.4904 457.739 55.3443 456.913 54.943C456.011 54.5045 455.308 53.8874 454.751 53.05C454.071 52.0245 453.74 50.8971 453.777 49.7325C453.804 48.8672 453.985 48.1596 454.377 47.3732C454.832 46.4638 455.421 45.7864 456.229 45.2458C456.967 44.7517 457.765 44.4664 458.699 44.362C458.966 44.3318 459.792 44.3527 460.08 44.3968Z" fill="#FFFCF7"/>
<path d="M404.85 49.8835V57.1448H405.778H406.706V53.9248C406.706 50.1851 406.731 49.2873 406.868 48.2202C407.012 47.1113 407.392 46.137 407.961 45.4387C408.274 45.0535 408.745 44.7056 409.188 44.5293C409.717 44.3205 410.195 44.3251 410.758 44.5501C410.856 44.5873 410.937 44.6151 410.939 44.6128C410.991 44.5432 411.856 43.1257 411.856 43.1095C411.856 43.0724 411.406 42.8566 411.15 42.7731C410.121 42.4274 408.991 42.6919 407.984 43.5108C407.627 43.8031 407.163 44.3089 406.835 44.7659L406.706 44.9468V43.7846V42.6223H405.778H404.85V49.8835Z" fill="#FFFCF7"/>
</g>
</g>
</g>
<g clip-path="url(#clip10_0_471)">
<g clip-path="url(#clip11_0_471)">
<g clip-path="url(#clip12_0_471)">
<path d="M590.765 61.3157V52.5331C590.765 51.1901 590.397 50.1137 589.661 49.3021C588.925 48.4905 587.912 48.0848 586.62 48.0848C585.327 48.0848 584.287 48.4963 583.503 49.3196C582.716 50.1427 582.324 51.2152 582.324 52.5331V61.3157C582.324 61.5438 582.241 61.7274 582.077 61.8665C581.911 62.0056 581.715 62.0752 581.487 62.0752H577.648C577.42 62.0752 577.23 61.9998 577.078 61.8472C576.925 61.6945 576.85 61.5051 576.85 61.2771V38.3011C576.85 38.0731 576.925 37.8837 577.078 37.7311C577.23 37.5784 577.42 37.5031 577.648 37.5031H581.487C581.715 37.5031 581.911 37.5726 582.077 37.7117C582.241 37.8509 582.324 38.0345 582.324 38.2625V44.8364C582.324 44.8364 584.471 43.0277 588.332 43.0277C590.74 43.0277 592.666 43.7891 594.112 45.3099C595.557 46.8306 596.28 48.7437 596.28 51.051V61.3157C596.28 61.5438 596.197 61.7274 596.032 61.8665C595.868 62.0056 595.671 62.0752 595.443 62.0752H591.601C591.373 62.0752 591.176 62.0056 591.012 61.8665C590.846 61.7293 590.765 61.5457 590.765 61.3157Z" fill="#FFFCF7"/>
<path d="M620.874 61.3154V52.5327C620.874 51.1897 620.507 50.1134 619.771 49.3018C619.034 48.4902 618.022 48.0843 616.729 48.0843C615.436 48.0843 614.397 48.496 613.612 49.3191C612.826 50.1423 612.433 51.2148 612.433 52.5327V61.3154C612.433 61.5434 612.35 61.7269 612.186 61.8661C612.02 62.0052 611.825 62.0748 611.597 62.0748H607.757C607.529 62.0748 607.34 61.9994 607.187 61.8467C607.034 61.6941 606.959 61.5047 606.959 61.2767V44.3471C606.959 44.1191 607.034 43.9297 607.187 43.7771C607.34 43.6244 607.529 43.5491 607.757 43.5491H611.597C611.825 43.5491 612.02 43.6186 612.186 43.7577C612.35 43.8969 612.433 44.0805 612.433 44.3085V44.836C612.433 44.836 614.58 43.0273 618.441 43.0273C620.849 43.0273 622.775 43.7887 624.221 45.3094C625.666 46.8302 626.389 48.7433 626.389 51.0506V61.3154C626.389 61.5434 626.306 61.7269 626.142 61.8661C625.977 62.0052 625.78 62.0748 625.552 62.0748H621.713C621.485 62.0748 621.288 62.0052 621.123 61.8661C620.955 61.7289 620.874 61.5453 620.874 61.3154Z" fill="#FFFCF7"/>
<path d="M603.559 62.0766H599.72C599.492 62.0766 599.294 61.9954 599.13 61.8292C598.966 61.665 598.883 61.4679 598.883 61.2399V44.3972C598.883 44.1692 598.964 43.974 599.13 43.8079C599.294 43.6436 599.492 43.5605 599.72 43.5605H603.559C603.787 43.5605 603.977 43.6436 604.129 43.8079C604.282 43.9721 604.357 44.1692 604.357 44.3972V61.2399C604.357 61.4679 604.282 61.665 604.129 61.8292C603.977 61.9954 603.787 62.0766 603.559 62.0766Z" fill="#FFFCF7"/>
<path d="M628.74 56.5639V48.1619V43.5609V38.3377C628.74 38.0846 628.822 37.8817 628.988 37.729C629.152 37.5763 629.349 37.501 629.577 37.501H633.455C633.658 37.501 633.842 37.5763 634.006 37.729C634.17 37.8817 634.253 38.0846 634.253 38.3377V43.5609H637.724C637.952 43.5609 638.155 43.644 638.332 43.8083C638.51 43.9725 638.599 44.1696 638.599 44.3976V47.3252C638.599 47.5281 638.51 47.7194 638.332 47.8953C638.155 48.073 637.952 48.1619 637.724 48.1619H634.253V55.2711C634.253 56.0827 634.443 56.6393 634.823 56.9446C635.204 57.2479 635.635 57.4006 636.116 57.4006C636.622 57.4006 637.181 57.2228 637.79 56.8692C638.473 56.4383 638.993 56.4885 639.349 57.0219L640.68 59.1513C640.984 59.6325 640.947 60.0885 640.566 60.5195C639.299 61.8373 637.475 62.4963 635.092 62.4963C633.318 62.4963 631.815 62.0016 630.586 61.0141C629.355 60.0248 628.74 58.5407 628.74 56.5639Z" fill="#FFFCF7"/>
<path d="M640.18 44.7145V45.1531H640.047V44.2236H640.371C640.456 44.2236 640.508 44.2429 640.551 44.2777C640.607 44.3222 640.642 44.3917 640.642 44.469C640.642 44.5463 640.605 44.614 640.551 44.6603C640.522 44.6835 640.489 44.7009 640.443 44.7086L640.775 45.1512H640.615L640.284 44.7125H640.18V44.7145ZM640.365 44.5889C640.425 44.5889 640.456 44.5753 640.478 44.5541C640.499 44.5328 640.512 44.5019 640.512 44.469C640.512 44.4362 640.499 44.4053 640.478 44.384C640.456 44.3628 640.425 44.3492 640.365 44.3492H640.18V44.5889H640.365Z" fill="#FFFCF7"/>
<path d="M639.383 44.6875C639.383 44.1368 639.831 43.6885 640.382 43.6885C640.933 43.6885 641.381 44.1368 641.381 44.6875C641.381 45.2382 640.933 45.6865 640.382 45.6865C639.831 45.6865 639.383 45.2382 639.383 44.6875ZM641.281 44.6875C641.281 44.1928 640.878 43.7909 640.384 43.7909C639.889 43.7909 639.487 44.1928 639.487 44.6875C639.487 45.1822 639.889 45.5841 640.384 45.5841C640.877 45.586 641.281 45.1841 641.281 44.6875Z" fill="#FFFCF7"/>
</g>
</g>
</g>
<g clip-path="url(#clip13_0_471)">
<g clip-path="url(#clip14_0_471)">
<g clip-path="url(#clip15_0_471)">
<mask id="mask2_0_471" style="mask-type:luminance" maskUnits="userSpaceOnUse" x="751" y="41" width="217" height="18">
<path d="M967.43 41H751.43V59H967.43V41Z" fill="white"/>
</mask>
<g mask="url(#mask2_0_471)">
<path d="M860.065 52.647C859.959 52.647 859.854 52.7529 859.854 52.647H855.724V50.3176H858.689C858.795 50.3176 858.901 50.3176 858.901 50.3176C859.007 50.3176 859.007 50.4235 859.113 50.4235V49.4705C859.113 49.5765 859.007 49.5765 858.901 49.6824C858.795 49.6824 858.689 49.7882 858.689 49.7882H855.724V47.247H859.642C859.748 47.247 859.854 47.247 859.854 47.247C859.854 47.247 859.959 47.3529 860.065 47.4588H860.171L860.065 46.5059H854.877C854.984 46.5059 854.984 46.6117 855.089 46.7176C855.089 46.8235 855.195 46.9294 855.195 46.9294V52.8588C855.195 52.9647 855.195 53.0705 855.089 53.0705C855.089 53.1765 854.984 53.1765 854.877 53.2824H860.384L860.489 52.3294C860.171 52.5411 860.065 52.647 860.065 52.647Z" fill="#FFFCF7"/>
<path d="M861.653 46.6117L861.547 47.5647H861.653C861.653 47.4588 861.759 47.4588 861.864 47.3529C861.97 47.3529 862.076 47.247 862.076 47.3529H864.406V53.0705C864.406 53.1765 864.406 53.2824 864.3 53.2824C864.3 53.3882 864.194 53.3882 864.088 53.4941H865.359C865.253 53.4941 865.253 53.3882 865.147 53.2824C865.147 53.1765 865.041 53.0705 865.041 53.0705V47.247H867.37C867.476 47.247 867.583 47.247 867.583 47.247C867.688 47.247 867.688 47.3529 867.794 47.4588L867.688 46.5059H861.653V46.6117Z" fill="#FFFCF7"/>
<path d="M767.523 41.7416C767.947 41.9534 768.053 42.3769 767.841 42.8004L761.806 56.5651L755.771 42.8004C755.559 42.3769 755.665 42.0593 756.088 41.7416V41.6357H753.018V41.7416C753.335 41.8475 753.547 42.271 753.865 42.8004L760.323 57.4122C760.535 57.9416 760.429 58.2593 760.006 58.4711V58.5769H763.5V58.4711C763.182 58.2593 763.076 57.9416 763.182 57.4122L769.641 42.8004C769.853 42.271 770.171 41.9534 770.488 41.7416V41.6357L767.523 41.7416Z" fill="#FFFCF7"/>
<path d="M786.053 56.6711H775.889V49.6828H784.042C784.253 49.6828 784.465 49.6828 784.677 49.7887C784.889 49.8946 784.995 50.0005 785.101 50.2122H785.206V47.4593H785.101C784.995 47.671 784.783 47.7769 784.677 47.8828C784.465 47.9887 784.253 47.9887 784.042 47.9887H775.889V43.3299H785.418C785.948 43.3299 786.265 43.5416 786.477 43.8593H786.583L786.265 41.6357H773.348V41.7416C773.559 41.8475 773.665 41.9534 773.771 42.1652C773.877 42.3769 773.877 42.5887 773.877 42.8004V57.3063C773.877 57.5181 773.877 57.7299 773.771 57.9416C773.665 58.1534 773.559 58.2593 773.348 58.3651V58.4711H786.795L787.112 56.2475H787.006C786.901 56.4593 786.583 56.6711 786.053 56.6711Z" fill="#FFFCF7"/>
<path d="M804.265 41.7416C804.477 41.8475 804.583 41.9534 804.689 42.1652C804.794 42.3769 804.794 42.5887 804.794 42.8004V53.7063C804.477 53.1769 803.947 52.5416 802.994 51.8005C802.147 51.0593 801.089 50.3181 800.03 49.5769C798.971 48.8357 797.912 48.0946 796.959 47.2475C794.947 45.6593 793.359 43.9652 793.359 42.6946C793.359 42.4828 793.359 42.271 793.465 42.0593C793.571 41.8475 793.677 41.7416 793.889 41.6357H790.924V41.7416C791.136 41.8475 791.241 41.9534 791.347 42.1652C791.453 42.3769 791.453 42.5887 791.453 42.8004V57.3063C791.453 57.5181 791.453 57.7299 791.347 57.9416C791.241 58.1534 791.136 58.2593 790.924 58.3651V58.4711H793.889V58.3651C793.677 58.2593 793.571 58.1534 793.465 57.9416C793.359 57.7299 793.359 57.5181 793.359 57.3063V46.0828C793.677 46.6122 794.206 47.2475 795.053 47.9887C795.9 48.7299 796.959 49.4711 798.018 50.2122C799.077 50.9534 800.136 51.6946 801.194 52.5416C803.206 54.1299 804.794 55.824 804.794 57.2005C804.794 57.4122 804.794 57.624 804.689 57.8357C804.583 58.0475 804.477 58.1534 804.265 58.2593V58.3651H807.23V58.2593C807.018 58.1534 806.912 58.0475 806.806 57.8357C806.7 57.624 806.7 57.4122 806.7 57.2005V42.6946C806.7 42.4828 806.7 42.271 806.806 42.0593C806.912 41.8475 807.018 41.7416 807.23 41.6357L804.265 41.7416Z" fill="#FFFCF7"/>
<path d="M832.535 45.1294C832.535 43.5412 834.229 42.6941 836.664 42.6941C837.935 42.6941 839.206 42.9059 840.264 43.4353C841.429 43.9647 842.382 44.4941 843.017 45.2353H843.123V42.3765H843.017C843.017 42.4824 842.911 42.4824 842.806 42.5882C842.7 42.5882 842.594 42.6941 842.594 42.5882C842.17 42.5882 839.629 41 836.664 41C834.864 41 833.488 41.4235 832.323 42.1647C831.264 42.9059 830.629 43.9647 830.629 45.2353C830.629 50.9529 842.488 49.0471 842.488 53.8118C842.488 54.7647 841.958 55.6118 841.006 56.3529C840.052 56.9882 838.676 57.3059 837.088 57.3059C835.182 57.3059 833.806 56.9882 832.641 56.3529C831.476 55.7177 830.629 54.0235 830.629 54.0235V57.8353C830.735 57.7294 830.946 57.6235 831.052 57.6235C831.264 57.6235 831.37 57.6235 831.582 57.7294C832.958 58.5765 834.652 59 836.982 59C839.206 59 840.9 58.4706 842.276 57.5177C843.652 56.5647 844.288 55.2941 844.288 53.7059C844.394 47.5647 832.535 49.1529 832.535 45.1294Z" fill="#FFFCF7"/>
<path d="M824.065 41.7416C824.277 41.8475 824.383 41.9534 824.489 42.1652C824.595 42.3769 824.595 42.5887 824.595 42.8004V52.1181C824.595 55.5063 822.371 57.3063 818.983 57.3063C815.594 57.3063 813.371 55.4005 813.371 52.1181V42.6946C813.371 42.4828 813.371 42.271 813.477 42.0593C813.583 41.8475 813.688 41.7416 813.9 41.6357H810.936V41.7416C811.147 41.8475 811.253 41.9534 811.359 42.1652C811.465 42.3769 811.465 42.5887 811.465 42.8004V52.0122C811.465 54.2357 812.1 55.9299 813.477 57.2005C814.853 58.4711 816.653 59.1063 818.877 59.1063C821.1 59.1063 822.9 58.4711 824.277 57.2005C825.653 55.9299 826.289 54.2357 826.289 52.0122V42.6946C826.289 42.4828 826.289 42.271 826.395 42.0593C826.5 41.8475 826.606 41.7416 826.818 41.6357L824.065 41.7416Z" fill="#FFFCF7"/>
<path d="M965.1 58.2587C964.888 58.1528 964.676 57.9411 964.464 57.7293C964.252 57.4117 963.935 57.094 963.723 56.7763C962.77 55.5058 961.606 53.8117 961.288 53.3881C960.864 52.7528 960.229 52.2234 959.594 51.7999C962.452 51.2705 964.358 49.3646 964.358 46.7175C964.358 45.1293 963.829 43.8587 962.558 43.0117C961.394 42.0587 959.911 41.5293 958.005 41.5293H949.111V41.6352C949.323 41.7411 949.429 41.8469 949.535 42.0587C949.641 42.2705 949.641 42.4822 949.641 42.694V57.1999C949.641 57.4117 949.641 57.6234 949.535 57.8352C949.429 58.0469 949.323 58.1528 949.111 58.2587V58.3646H952.076V58.2587C951.864 58.1528 951.758 58.0469 951.652 57.8352C951.546 57.6234 951.546 57.4117 951.546 57.1999V52.1175H955.994C958.323 52.1175 959.7 54.4469 961.076 56.3528C961.288 56.5646 961.5 56.9881 961.817 57.4117C961.923 57.5175 962.029 57.7293 962.029 57.8352C962.029 58.0469 962.029 58.1528 962.029 58.3646L965.1 58.2587ZM958.005 50.5293H951.652V43.3293H958.005C960.758 43.3293 962.452 44.5999 962.452 46.8234C962.452 49.1528 960.652 50.5293 958.005 50.5293Z" fill="#FFFCF7"/>
<path d="M942.229 41.7416C942.44 41.8475 942.546 41.9534 942.652 42.1652C942.758 42.3769 942.758 42.5887 942.758 42.8004V52.1181C942.758 55.5063 940.535 57.3063 937.146 57.3063C933.758 57.3063 931.535 55.4005 931.535 52.1181V42.6946C931.535 42.4828 931.535 42.271 931.64 42.0593C931.746 41.8475 931.852 41.7416 932.064 41.6357H929.1V41.7416C929.311 41.8475 929.417 41.9534 929.523 42.1652C929.629 42.3769 929.629 42.5887 929.629 42.8004V52.0122C929.629 54.2357 930.264 55.9299 931.64 57.2005C933.017 58.4711 934.817 59.1063 937.04 59.1063C939.264 59.1063 941.064 58.4711 942.44 57.2005C943.817 55.9299 944.452 54.2357 944.452 52.0122V42.6946C944.452 42.4828 944.452 42.271 944.558 42.0593C944.664 41.8475 944.77 41.7416 944.982 41.6357L942.229 41.7416Z" fill="#FFFCF7"/>
<path d="M878.383 41.6357C878.594 41.8475 878.7 41.9534 878.806 42.1652C878.912 42.3769 878.912 42.5887 878.912 42.8004V57.3063C878.912 57.5181 878.912 57.7299 878.806 57.9416C878.7 58.1534 878.594 58.2593 878.383 58.3651V58.4711H881.347V58.3651C881.135 58.2593 881.03 58.1534 880.924 57.9416C880.818 57.7299 880.818 57.5181 880.818 57.3063V49.6828H888.97C889.183 49.6828 889.394 49.6828 889.606 49.7887C889.818 49.8946 889.924 50.0005 890.03 50.2122H890.135V47.4593H890.03C889.924 47.671 889.712 47.7769 889.606 47.8828C889.394 47.9887 889.183 47.9887 888.97 47.9887H880.818V43.3299H890.347C890.876 43.3299 891.194 43.5416 891.406 43.8593H891.512L891.194 41.6357H878.383Z" fill="#FFFCF7"/>
<path d="M906.971 56.6711H897.865V42.6946C897.865 42.4828 897.865 42.271 897.971 42.0593C898.076 41.8475 898.183 41.7416 898.395 41.6357H895.43V41.7416C895.641 41.8475 895.747 41.9534 895.853 42.1652C895.959 42.3769 895.959 42.5887 895.959 42.8004V57.3063C895.959 57.5181 895.959 57.7299 895.853 57.9416C895.747 58.1534 895.641 58.2593 895.43 58.3651V58.4711H907.818L908.136 56.2475H908.03C907.818 56.4593 907.5 56.6711 906.971 56.6711Z" fill="#FFFCF7"/>
<path d="M924.229 56.6711H914.064V49.6828H922.217C922.429 49.6828 922.641 49.6828 922.852 49.7887C923.064 49.8946 923.17 50.0005 923.276 50.2122H923.382V47.4593H923.276C923.17 47.671 922.958 47.7769 922.852 47.8828C922.746 47.9887 922.429 47.9887 922.217 47.9887H914.064V43.3299H923.594C924.123 43.3299 924.441 43.5416 924.652 43.8593H924.758L924.441 41.6357H911.629V41.7416C911.841 41.8475 911.946 41.9534 912.052 42.1652C912.158 42.3769 912.158 42.5887 912.158 42.8004V57.3063C912.158 57.5181 912.158 57.7299 912.052 57.9416C911.946 58.1534 911.841 58.2593 911.629 58.3651V58.4711H925.076L925.394 56.2475H925.288C925.076 56.4593 924.758 56.6711 924.229 56.6711Z" fill="#FFFCF7"/>
</g>
</g>
</g>
</g>
<g clip-path="url(#clip16_0_471)">
<g clip-path="url(#clip17_0_471)">
<g clip-path="url(#clip18_0_471)">
<path d="M1146.72 64.9996C1146.36 64.9996 1145.99 64.9996 1145.6 64.9847C1144.06 64.8278 1142.88 64.0976 1141.96 62.9666C1141.64 63.2576 1141.33 63.563 1140.99 63.8289C1140.19 64.4662 1139.24 64.7488 1138.23 64.7967C1137.81 64.8167 1137.38 64.7803 1136.96 64.7208C1136.02 64.5875 1135.21 64.1596 1134.52 63.5171C1134.15 63.1753 1133.84 62.7848 1133.59 62.3498C1133.16 61.6121 1132.93 60.812 1132.86 59.9647C1132.82 59.5478 1132.8 59.1297 1132.78 58.7119C1132.75 58.1707 1132.73 57.6291 1132.7 57.0879C1132.68 56.6246 1132.65 56.1616 1132.62 55.6982C1132.59 55.0528 1132.57 54.4071 1132.54 53.7617C1132.54 53.6475 1132.52 53.5337 1132.51 53.4197C1132.01 54.3567 1131.55 55.2998 1131.09 56.2409C1130.54 57.3487 1129.99 58.4558 1129.44 59.5614C1129.08 60.3028 1128.71 61.0433 1128.33 61.78C1127.96 62.4932 1127.48 63.1146 1126.87 63.635C1126.05 64.3225 1125.11 64.7086 1124.06 64.7958C1123.47 64.8447 1122.87 64.8269 1122.29 64.6862C1121.5 64.4955 1120.78 64.1751 1120.14 63.6457C1119.55 63.1497 1119.08 62.5621 1118.77 61.8674C1118.52 61.3223 1118.35 60.7426 1118.16 60.1705C1117.97 59.5557 1117.8 58.9314 1117.62 58.3124C1117.54 58.0297 1117.44 57.7498 1117.34 57.4304C1116.98 58.5516 1116.47 59.5528 1115.82 60.4834C1115.24 61.3237 1114.55 62.0758 1113.77 62.7316C1112.99 63.3838 1112.14 63.9191 1111.19 64.3072C1110.44 64.6179 1109.66 64.8367 1108.85 64.9229C1108.69 64.94 1108.53 64.9736 1108.37 64.9996C1107.88 64.9996 1107.4 64.9996 1106.89 64.9845C1106.46 64.9146 1106.06 64.8763 1105.65 64.8021C1104.47 64.5828 1103.39 64.1077 1102.43 63.3809C1102.3 63.2794 1102.17 63.2228 1101.98 63.27C1101.67 63.3467 1101.34 63.3901 1101.01 63.3913C1100.42 63.3936 1099.83 63.309 1099.26 63.1315C1098.55 62.9117 1097.9 62.5797 1097.37 62.0607C1097.02 61.7187 1096.71 61.3326 1096.38 60.957C1096.24 61.1137 1096.1 61.3089 1095.93 61.4788C1095.44 61.9653 1094.96 62.4735 1094.44 62.9134C1093.84 63.4128 1093.16 63.8179 1092.43 64.1135C1091.96 64.3041 1091.49 64.4987 1091 64.6296C1090.5 64.7658 1089.97 64.828 1089.45 64.9216C1089.3 64.9492 1089.15 64.9737 1088.99 64.9996C1088.37 64.9996 1087.74 64.9996 1087.09 64.9845C1086.63 64.9121 1086.2 64.8848 1085.77 64.7911C1084.87 64.5902 1084 64.2799 1083.18 63.8352C1082.38 63.4002 1081.65 62.8643 1080.99 62.244C1080.66 61.9342 1080.36 61.5852 1080.06 61.2446C1079.58 60.6983 1079.18 60.0916 1078.84 59.4528C1078.46 58.76 1078.16 58.0331 1077.94 57.2765C1077.69 56.4188 1077.52 55.54 1077.48 54.6508C1077.45 53.8582 1077.43 53.0609 1077.54 52.2656C1077.63 51.5835 1077.77 50.9141 1077.97 50.2575C1078.22 49.4228 1078.59 48.6358 1079.03 47.8848C1079.5 47.1006 1080.05 46.3832 1080.68 45.7265C1080.95 45.4383 1081.26 45.1824 1081.56 44.9157C1082.1 44.428 1082.71 44.0343 1083.37 43.7198C1083.9 43.4629 1084.46 43.2454 1085.03 43.0649C1085.82 42.8121 1086.64 42.6757 1087.47 42.6581C1087.83 42.6505 1088.19 42.6416 1088.55 42.6607C1088.98 42.684 1089.42 42.7028 1089.85 42.7825C1090.93 42.9849 1091.97 43.3317 1092.93 43.8797C1093.71 44.324 1094.42 44.8622 1095.07 45.4811C1095.38 45.779 1095.66 46.1106 1095.95 46.4333C1096.57 47.1268 1097.06 47.9041 1097.48 48.7333C1097.53 48.8507 1097.59 48.9698 1097.65 49.0925C1097.67 49.0706 1097.69 49.0633 1097.69 49.053C1097.82 48.4504 1097.93 47.8458 1098.07 47.2453C1098.18 46.7281 1098.33 46.2167 1098.45 45.7005C1098.71 44.5653 1098.97 43.4284 1099.23 42.2926C1099.46 41.2928 1099.69 40.2932 1099.93 39.2943C1100.21 38.0808 1100.75 37.0166 1101.72 36.1921C1102.22 35.7654 1102.77 35.4267 1103.4 35.2366C1103.69 35.1464 1104 35.0788 1104.3 35.001C1104.72 35.001 1105.14 35.001 1105.58 35.0156C1105.66 35.034 1105.72 35.0303 1105.78 35.0427C1106.36 35.1704 1106.92 35.3309 1107.45 35.6144C1108.32 36.0862 1108.99 36.7568 1109.46 37.6299C1109.79 38.2527 1109.99 38.914 1110.06 39.6233C1110.1 40.1301 1110.08 40.6263 1109.99 41.1185C1109.88 41.6776 1109.74 42.2297 1109.61 42.8146C1111.73 43.0906 1113.57 43.9305 1115.11 45.4242C1115.13 45.3792 1115.15 45.3452 1115.16 45.3105C1115.64 44.2864 1116.39 43.5195 1117.39 43.0126C1118.31 42.545 1119.29 42.3484 1120.33 42.4554C1120.84 42.5071 1121.33 42.5972 1121.8 42.776C1122.65 43.0983 1123.32 43.6517 1123.86 44.3797C1124.24 44.8934 1124.49 45.469 1124.67 46.0885C1125.03 45.3957 1125.45 44.7744 1126.05 44.2787C1126.87 43.6016 1127.82 43.2914 1128.86 43.2491C1129.22 43.2349 1129.57 43.289 1129.92 43.3218C1130.51 43.3767 1131.06 43.5602 1131.59 43.8244C1131.78 43.9188 1131.96 44.0256 1132.17 44.1447C1132.15 44.0698 1132.13 44.0286 1132.12 43.9902C1131.86 43.4386 1131.7 42.8548 1131.65 42.252C1131.6 41.5003 1131.68 40.7607 1131.95 40.0419C1132.44 38.777 1133.28 37.8211 1134.44 37.1508C1135.54 36.5122 1136.74 36.3597 1137.99 36.561C1138.97 36.718 1139.81 37.1546 1140.55 37.7974C1141.13 38.3069 1141.61 38.9037 1141.93 39.6224C1142.34 40.5549 1142.48 41.5249 1142.34 42.5253C1142.23 43.3372 1141.97 44.1025 1141.5 44.7874C1141.46 44.8329 1141.47 44.9332 1141.5 44.9868C1141.62 45.2153 1141.78 45.4286 1141.89 45.6607C1142.29 46.4505 1142.41 47.3046 1142.47 48.1733C1142.49 48.6298 1142.52 49.0865 1142.54 49.5432C1142.58 50.2769 1142.62 51.0108 1142.66 51.7445C1142.69 52.2077 1142.72 52.6707 1142.74 53.134C1142.77 53.7467 1142.79 54.3598 1142.82 54.9725C1142.83 55.1618 1142.85 55.3504 1142.87 55.5471C1142.9 55.5373 1142.92 55.536 1142.93 55.5255C1143.71 54.8936 1144.62 54.5537 1145.6 54.4631C1146.18 54.4097 1146.77 54.433 1147.35 54.5678C1148.2 54.7649 1148.95 55.1516 1149.6 55.7203C1150.07 56.1267 1150.47 56.5918 1150.77 57.1419C1151.13 57.7819 1151.34 58.4601 1151.4 59.1795C1151.44 59.6086 1151.43 60.0515 1151.36 60.4767C1151.29 60.9296 1151.18 61.3872 1151.01 61.8104C1150.68 62.6162 1150.15 63.2863 1149.47 63.8415C1148.88 64.3215 1148.22 64.6474 1147.5 64.8411C1147.24 64.9087 1146.98 64.9476 1146.72 64.9996ZM1098.37 56.0786C1098.28 56.458 1098.2 56.839 1098.1 57.2164C1097.98 57.7183 1097.9 58.2224 1097.98 58.7397C1098.32 60.7974 1100.3 61.4322 1101.68 61.0321C1102.04 60.9287 1102.36 60.7072 1102.72 60.5344C1103.1 61.0614 1103.6 61.5357 1104.21 61.8831C1105.94 62.8774 1107.78 63.0161 1109.67 62.4688C1111.47 61.9464 1112.83 60.7901 1113.91 59.2933C1115.22 57.4914 1115.74 55.4399 1115.78 53.245C1115.8 52.2287 1115.64 51.2405 1115.3 50.2792C1115.16 49.8572 1115.07 49.4093 1114.89 49.0022C1114.52 48.1477 1113.98 47.4018 1113.27 46.7869C1111.64 45.3657 1109.74 44.8122 1107.59 45.0697C1107.32 45.1025 1107.05 45.1623 1106.78 45.2098C1106.78 45.1867 1106.77 45.1732 1106.78 45.1615C1107.05 43.9461 1107.33 42.7317 1107.6 41.5152C1107.73 40.9727 1107.89 40.4406 1107.83 39.866C1107.71 38.6307 1107 37.7148 1105.82 37.3583C1104.9 37.0808 1104.04 37.1957 1103.28 37.8048C1102.66 38.3042 1102.3 38.9718 1102.12 39.7423C1101.62 41.9125 1101.13 44.0829 1100.63 46.2531C1099.88 49.5177 1099.13 52.7821 1098.37 56.0786ZM1083.6 61.4706C1084.01 61.6986 1084.41 61.9599 1084.84 62.1484C1086.24 62.7588 1087.71 62.8896 1089.22 62.7038C1090.87 62.5003 1092.33 61.874 1093.54 60.735C1094.77 59.5783 1095.7 58.2294 1096.01 56.5208C1096.11 55.9528 1096.3 55.3973 1096.37 54.8268C1096.47 54.0379 1096.42 53.2438 1096.3 52.4553C1095.94 49.9474 1094.7 47.942 1092.71 46.4166C1090.72 44.899 1088.47 44.5694 1086.07 45.1032C1084.54 45.4435 1083.26 46.2348 1082.2 47.3802C1081.34 48.3107 1080.67 49.3614 1080.23 50.5571C1079.61 52.271 1079.54 54.0262 1079.89 55.8006C1080.36 58.1724 1081.6 60.0568 1083.6 61.4706ZM1123.62 51.5614C1123.5 51.0167 1123.38 50.4718 1123.25 49.9274C1123.01 48.8512 1122.78 47.771 1122.51 46.7005C1122.3 45.8821 1121.85 45.2296 1121.04 44.8896C1120.54 44.6789 1120.01 44.6185 1119.48 44.6891C1118.52 44.8145 1117.74 45.2351 1117.27 46.1092C1116.93 46.7477 1116.88 47.4466 1117.02 48.1413C1117.16 48.8012 1117.35 49.4494 1117.54 50.0974C1118.39 53.0155 1119.24 55.9325 1120.1 58.8479C1120.29 59.4827 1120.46 60.127 1120.71 60.7369C1121.6 62.8842 1124.1 62.9333 1125.27 62.0457C1125.78 61.6579 1126.14 61.1599 1126.42 60.5949C1127.48 58.4704 1128.53 56.344 1129.58 54.2178C1130.3 52.7551 1131.02 51.2944 1131.74 49.8265C1132.02 49.2453 1132.15 48.6267 1132.08 47.9738C1132 47.0533 1131.52 46.3813 1130.74 45.9176C1130.03 45.4878 1129.24 45.3919 1128.43 45.5547C1127.5 45.7408 1126.97 46.3861 1126.64 47.217C1125.9 49.0286 1125.18 50.8429 1124.45 52.6573C1124.33 52.9671 1124.22 53.2826 1124.09 53.6206C1123.93 52.9231 1123.78 52.2579 1123.62 51.5614ZM1140.75 57.9868C1140.71 57.3054 1140.67 56.6241 1140.64 55.9427C1140.59 55.0923 1140.55 54.2417 1140.5 53.3915C1140.43 52.1067 1140.36 50.8221 1140.28 49.5375C1140.25 48.8954 1140.24 48.2495 1140.16 47.6123C1139.98 46.1486 1138.79 44.9222 1137.11 45.0699C1135.61 45.2027 1134.48 46.3912 1134.5 47.8984C1134.51 48.9701 1134.59 50.0409 1134.65 51.1121C1134.71 52.4299 1134.78 53.7478 1134.85 55.0655C1134.91 56.3248 1134.97 57.5842 1135.05 58.8431C1135.07 59.3095 1135.07 59.7847 1135.16 60.2388C1135.67 62.6586 1138.1 63.0937 1139.6 62.0705C1140.42 61.5176 1140.79 60.6857 1140.82 59.7189C1140.83 59.1552 1140.78 58.5893 1140.75 57.9868ZM1137.42 38.7363C1137.37 38.7295 1137.33 38.7191 1137.28 38.7167C1136.21 38.6597 1135.33 39.0429 1134.63 39.8549C1134.15 40.4098 1133.87 41.0459 1133.87 41.7906C1133.88 42.5558 1134.15 43.2225 1134.63 43.8114C1135.81 45.2646 1137.63 45.2425 1138.76 44.4441C1139.77 43.7244 1140.24 42.7187 1140.13 41.461C1140.02 40.1333 1138.77 38.8544 1137.42 38.7363ZM1143.56 61.3468C1144.11 62.1261 1144.82 62.6224 1145.79 62.7527C1147.49 62.9804 1149.09 61.6333 1149.19 59.9063C1149.31 57.9596 1147.56 56.3215 1145.52 56.7354C1143.57 57.1317 1142.4 59.4083 1143.56 61.3468Z" fill="#FFFCF7"/>
<path d="M1147.5 40.1917C1147.5 40.1695 1147.5 40.1631 1147.5 40.1566C1147.49 40.1668 1147.47 40.1747 1147.47 40.1877C1147.33 40.5659 1147.19 40.9447 1147.05 41.323C1146.96 41.323 1146.87 41.323 1146.77 41.323C1146.63 40.9524 1146.5 40.5829 1146.36 40.2135C1146.35 40.2165 1146.34 40.2196 1146.33 40.2227C1146.33 40.5851 1146.33 40.9475 1146.33 41.3191C1146.22 41.3191 1146.11 41.3191 1146 41.3191C1146 40.7494 1146 40.1746 1146 39.5717C1146.12 39.5717 1146.26 39.5585 1146.39 39.5782C1146.44 39.586 1146.5 39.6589 1146.52 39.7156C1146.65 40.0781 1146.77 40.4443 1146.91 40.8564C1146.97 40.6987 1147.02 40.5788 1147.06 40.4565C1147.12 40.2894 1147.18 40.1207 1147.23 39.9523C1147.36 39.5463 1147.36 39.5462 1147.81 39.5827C1147.81 40.1565 1147.81 40.7316 1147.81 41.3176C1147.71 41.3176 1147.62 41.3176 1147.5 41.3176C1147.5 40.9451 1147.5 40.5763 1147.5 40.1917Z" fill="#FFFCF7"/>
<path d="M1145.62 39.5713C1145.7 39.5742 1145.76 39.5772 1145.82 39.5804C1145.82 39.6681 1145.82 39.7442 1145.82 39.8385C1145.64 39.8385 1145.47 39.8385 1145.28 39.8385C1145.28 40.34 1145.28 40.8237 1145.28 41.3181C1145.16 41.3181 1145.05 41.3181 1144.93 41.3181C1144.93 40.8304 1144.93 40.3466 1144.93 39.8446C1144.74 39.8446 1144.57 39.8446 1144.39 39.8446C1144.39 39.7501 1144.39 39.674 1144.39 39.5713C1144.79 39.5713 1145.2 39.5713 1145.62 39.5713Z" fill="#FFFCF7"/>
<path d="M1104.93 55.3851C1104.7 54.3971 1104.81 53.4471 1105.12 52.51C1105.34 51.8095 1105.71 51.1959 1106.28 50.7195C1107.44 49.7534 1109.46 50.178 1109.88 51.8496C1110.34 53.6615 1109.97 55.2971 1108.64 56.648C1107.91 57.3803 1106.72 57.472 1105.91 56.9072C1105.38 56.5403 1105.1 56.0066 1104.93 55.3851Z" fill="#FFFCF7"/>
<path d="M1089.81 56.6379C1088.79 57.7446 1087.11 57.6106 1086.22 56.3691C1085.73 55.6755 1085.5 54.8942 1085.44 54.0556C1085.38 53.1638 1085.52 52.3129 1085.95 51.5094C1086.78 49.9438 1088.97 49.7994 1089.96 51.4011C1090.56 52.3703 1090.74 53.4252 1090.64 54.5414C1090.59 55.2206 1090.38 55.851 1089.99 56.4118C1089.93 56.486 1089.87 56.5551 1089.81 56.6379Z" fill="#FFFCF7"/>
</g>
</g>
</g>
</g>
<defs>
<clipPath id="clip0_0_471">
<rect width="1440" height="100" fill="white"/>
</clipPath>
<clipPath id="clip1_0_471">
<rect width="73.14" height="30" fill="white" transform="translate(-24.7695 35)"/>
</clipPath>
<clipPath id="clip2_0_471">
<rect width="73.14" height="30" fill="white" transform="translate(-24.7695 35)"/>
</clipPath>
<clipPath id="clip3_0_471">
<rect width="73.14" height="29.997" fill="white" transform="translate(-24.7695 35.002)"/>
</clipPath>
<clipPath id="clip4_0_471">
<rect width="67.61" height="25" fill="white" transform="translate(158.369 37.5)"/>
</clipPath>
<clipPath id="clip5_0_471">
<rect width="67.61" height="25" fill="white" transform="translate(158.369 37.5)"/>
</clipPath>
<clipPath id="clip6_0_471">
<rect width="67.61" height="24.9952" fill="white" transform="translate(158.369 37.502)"/>
</clipPath>
<clipPath id="clip7_0_471">
<rect width="130.88" height="25" fill="white" transform="translate(335.98 37.5)"/>
</clipPath>
<clipPath id="clip8_0_471">
<rect width="130.88" height="25" fill="white" transform="translate(335.98 37.5)"/>
</clipPath>
<clipPath id="clip9_0_471">
<rect width="130.88" height="24.9995" fill="white" transform="translate(335.98 37.5002)"/>
</clipPath>
<clipPath id="clip10_0_471">
<rect width="64.58" height="25" fill="white" transform="translate(576.85 37.5)"/>
</clipPath>
<clipPath id="clip11_0_471">
<rect width="64.58" height="25" fill="white" transform="translate(576.85 37.5)"/>
</clipPath>
<clipPath id="clip12_0_471">
<rect width="64.58" height="24.9987" fill="white" transform="translate(576.85 37.501)"/>
</clipPath>
<clipPath id="clip13_0_471">
<rect width="216" height="18" fill="white" transform="translate(751.43 41)"/>
</clipPath>
<clipPath id="clip14_0_471">
<rect width="216" height="18" fill="white" transform="translate(751.43 41)"/>
</clipPath>
<clipPath id="clip15_0_471">
<rect width="216" height="18" fill="white" transform="translate(751.43 41)"/>
</clipPath>
<clipPath id="clip16_0_471">
<rect width="74.02" height="30" fill="white" transform="translate(1077.43 35)"/>
</clipPath>
<clipPath id="clip17_0_471">
<rect width="74.02" height="30" fill="white" transform="translate(1077.43 35)"/>
</clipPath>
<clipPath id="clip18_0_471">
<rect width="74.02" height="29.9986" fill="white" transform="translate(1077.43 35.001)"/>
</clipPath>
</defs>
</svg>
